<svg width="41" height="49" viewBox="0 0 41 49" fill="none" xmlns="http://www.w3.org/2000/svg">
<path d="M20.912 28.88V40H19.088V32.384L15.696 40H14.432L11.024 32.384V40H9.2V28.88H11.168L15.072 37.6L18.96 28.88H20.912ZM31.5494 28.88L27.8694 35.968V40H26.0454V35.968L22.3494 28.88H24.3814L26.9574 34.336L29.5334 28.88H31.5494Z" fill="#29A867"/>
<path d="M37.5623 12.5315C37.5176 12.0033 37.0727 11.5986 36.5426 11.6038H28.7932V8.6671C28.7932 3.88028 24.9125 3.48503e-06 20.1261 3.48503e-06C15.3393 3.48503e-06 11.459 3.88028 11.459 8.6671V11.6038H3.70958C3.18182 11.6058 2.7413 12.0065 2.68992 12.5315L0.0184916 43.2439C-0.102991 44.6678 0.37816 46.0778 1.34564 47.1306C2.31272 48.1829 3.67692 48.7815 5.10643 48.7803H35.1557C36.5852 48.7815 37.9494 48.1829 38.9165 47.1306C39.884 46.0778 40.3655 44.6678 40.244 43.2439L37.5623 12.5315ZM13.4983 8.6671C13.4983 5.00668 16.4657 2.03932 20.1261 2.03932C23.7865 2.03932 26.7539 5.00668 26.7539 8.6671V11.6038H13.4983V8.6671ZM37.4093 45.752C36.8326 46.3869 36.0132 46.7466 35.1557 46.741H5.09607C4.23852 46.7414 3.42041 46.3817 2.84048 45.75C2.26094 45.1179 1.97297 44.2715 2.04745 43.4172L4.63723 13.6431H11.459V20.0056C9.81916 20.5103 8.79513 22.1382 9.05044 23.8349C9.30535 25.5313 10.7631 26.786 12.4786 26.786C14.1941 26.786 15.6515 25.5313 15.9068 23.8349C16.1618 22.1382 15.1377 20.5103 13.4983 20.0056V13.6328H26.7539V20.0056C25.114 20.5103 24.09 22.1382 24.3453 23.8349C24.6002 25.5313 26.058 26.786 27.7735 26.786C29.489 26.786 30.9464 25.5313 31.2017 23.8349C31.4566 22.1382 30.4326 20.5103 28.7932 20.0056V13.6328H35.6046L38.1944 43.4068C38.278 44.2648 37.9924 45.1175 37.4093 45.752ZM12.3257 21.9024C12.4273 21.9159 12.53 21.9159 12.6316 21.9024C13.3856 21.9836 13.9448 22.6408 13.9042 23.398C13.8631 24.1556 13.237 24.749 12.4786 24.749C11.7199 24.749 11.0937 24.1556 11.0531 23.398C11.0125 22.6408 11.5713 21.9836 12.3257 21.9024ZM27.6206 21.9024C27.7221 21.9159 27.8249 21.9159 27.9265 21.9024C28.6805 21.9836 29.2397 22.6408 29.1991 23.398C29.158 24.1556 28.5319 24.749 27.7735 24.749C27.0148 24.749 26.3886 24.1556 26.348 23.398C26.3074 22.6408 26.8662 21.9836 27.6206 21.9024Z" fill="black"/>
<path d="M37.5623 12.5315C37.5176 12.0033 37.0727 11.5986 36.5426 11.6038H28.7932V8.6671C28.7932 3.88028 24.9125 3.48503e-06 20.1261 3.48503e-06C15.3393 3.48503e-06 11.459 3.88028 11.459 8.6671V11.6038H3.70958C3.18182 11.6058 2.7413 12.0065 2.68992 12.5315L0.0184916 43.2439C-0.102991 44.6678 0.37816 46.0778 1.34564 47.1306C2.31272 48.1829 3.67692 48.7815 5.10643 48.7803H35.1557C36.5852 48.7815 37.9494 48.1829 38.9165 47.1306C39.884 46.0778 40.3655 44.6678 40.244 43.2439L37.5623 12.5315ZM13.4983 8.6671C13.4983 5.00668 16.4657 2.03932 20.1261 2.03932C23.7865 2.03932 26.7539 5.00668 26.7539 8.6671V11.6038H13.4983V8.6671ZM37.4093 45.752C36.8326 46.3869 36.0132 46.7466 35.1557 46.741H5.09607C4.23852 46.7414 3.42041 46.3817 2.84048 45.75C2.26094 45.1179 1.97297 44.2715 2.04745 43.4172L4.63723 13.6431H11.459V20.0056C9.81916 20.5103 8.79513 22.1382 9.05044 23.8349C9.30535 25.5313 10.7631 26.786 12.4786 26.786C14.1941 26.786 15.6515 25.5313 15.9068 23.8349C16.1618 22.1382 15.1377 20.5103 13.4983 20.0056V13.6328H26.7539V20.0056C25.114 20.5103 24.09 22.1382 24.3453 23.8349C24.6002 25.5313 26.058 26.786 27.7735 26.786C29.489 26.786 30.9464 25.5313 31.2017 23.8349C31.4566 22.1382 30.4326 20.5103 28.7932 20.0056V13.6328H35.6046L38.1944 43.4068C38.278 44.2648 37.9924 45.1175 37.4093 45.752ZM12.3257 21.9024C12.4273 21.9159 12.53 21.9159 12.6316 21.9024C13.3856 21.9836 13.9448 22.6408 13.9042 23.398C13.8631 24.1556 13.237 24.749 12.4786 24.749C11.7199 24.749 11.0937 24.1556 11.0531 23.398C11.0125 22.6408 11.5713 21.9836 12.3257 21.9024ZM27.6206 21.9024C27.7221 21.9159 27.8249 21.9159 27.9265 21.9024C28.6805 21.9836 29.2397 22.6408 29.1991 23.398C29.158 24.1556 28.5319 24.749 27.7735 24.749C27.0148 24.749 26.3886 24.1556 26.348 23.398C26.3074 22.6408 26.8662 21.9836 27.6206 21.9024Z" fill="#29A867"/>
</svg>
